<svg width="150" height="150" viewBox="0 0 150 150" fill="none" xmlns="http://www.w3.org/2000/svg">
<ellipse cx="9.92062" cy="9.92064" rx="9.92062" ry="9.92064" fill="#165A4A"/>
<ellipse cx="9.92062" cy="42.4603" rx="9.92062" ry="9.92064" fill="#165A4A"/>
<ellipse cx="9.92062" cy="75" rx="9.92062" ry="9.92064" fill="#165A4A"/>
<ellipse cx="9.92062" cy="107.54" rx="9.92062" ry="9.92064" fill="#165A4A"/>
<ellipse cx="9.92062" cy="140.079" rx="9.92062" ry="9.92064" fill="#165A4A"/>
<ellipse cx="42.4604" cy="140.079" rx="9.92062" ry="9.92064" fill="#165A4A"/>
<ellipse cx="75" cy="140.079" rx="9.92062" ry="9.92064" fill="#165A4A"/>
<ellipse cx="107.54" cy="140.079" rx="9.92062" ry="9.92064" fill="#165A4A"/>
<ellipse cx="140.079" cy="140.079" rx="9.92062" ry="9.92064" fill="#165A4A"/>
<ellipse cx="42.4604" cy="107.54" rx="9.92062" ry="9.92064" fill="#165A4A"/>
<ellipse cx="75" cy="107.54" rx="9.92062" ry="9.92064" fill="#165A4A"/>
<ellipse cx="107.54" cy="107.54" rx="9.92062" ry="9.92064" fill="#165A4A"/>
<ellipse cx="140.079" cy="107.54" rx="9.92062" ry="9.92064" fill="#165A4A"/>
<ellipse cx="42.4604" cy="75" rx="9.92062" ry="9.92064" fill="#165A4A"/>
<ellipse cx="75" cy="75" rx="9.92062" ry="9.92064" fill="#165A4A"/>
<ellipse cx="107.54" cy="75" rx="9.92062" ry="9.92064" fill="#165A4A"/>
<ellipse cx="140.079" cy="75" rx="9.92062" ry="9.92064" fill="#165A4A"/>
<ellipse cx="42.4604" cy="42.4603" rx="9.92062" ry="9.92064" fill="#165A4A"/>
<ellipse cx="75" cy="42.4603" rx="9.92062" ry="9.92064" fill="#165A4A"/>
<ellipse cx="107.54" cy="42.4603" rx="9.92062" ry="9.92064" fill="#165A4A"/>
<ellipse cx="140.079" cy="42.4603" rx="9.92062" ry="9.92064" fill="#165A4A"/>
<ellipse cx="42.4603" cy="9.92064" rx="9.92062" ry="9.92064" fill="#165A4A"/>
<ellipse cx="74.9997" cy="9.92064" rx="9.92062" ry="9.92064" fill="#165A4A"/>
<ellipse cx="107.539" cy="9.92064" rx="9.92062" ry="9.92064" fill="#165A4A"/>
<ellipse cx="140.079" cy="9.92064" rx="9.92062" ry="9.92064" fill="#165A4A"/>
</svg>
