<svg width="179" height="135" viewBox="0 0 179 135" fill="none" xmlns="http://www.w3.org/2000/svg">
<path d="M178 -26H1V111.544L89.9836 134L178 111.544V-26Z" fill="#165A4A" stroke="#165A4A"/>
<path d="M43.924 55H48.964V64.24H56.724V68.8H48.964V78H43.924V55ZM71.484 55H66.444V64.24H58.684V68.8H66.444V78H71.484V55ZM80.9509 78L76.2709 56.48L80.9509 55L84.5509 72.48L89.2309 67V73.8L85.5109 78H80.9509ZM99.3109 78H94.7509L91.0309 73.8V67L95.5509 72.48L99.3109 55L103.831 56.48L99.3109 78ZM108.612 55H121.412V59.52H113.652V64.24H121.412V68.8H113.652V73.32H121.412V78H108.612V55ZM136.172 75.28V68.28L132.412 66.52L136.172 64.72V57.76L131.652 55H123.372V59.52H131.132V64.24H123.372V68.8H131.132V73.32H123.372V78H131.652L136.172 75.28Z" fill="white"/>
</svg>
