<svg width="145" height="145" viewBox="0 0 145 145" fill="none" xmlns="http://www.w3.org/2000/svg">
<ellipse cx="9.58991" cy="9.58996" rx="9.58991" ry="9.58996" fill="#165A4A"/>
<ellipse cx="9.58991" cy="41.045" rx="9.58991" ry="9.58996" fill="#165A4A"/>
<ellipse cx="9.58991" cy="72.5" rx="9.58991" ry="9.58996" fill="#165A4A"/>
<ellipse cx="9.58991" cy="103.955" rx="9.58991" ry="9.58996" fill="#165A4A"/>
<ellipse cx="9.58991" cy="135.41" rx="9.58991" ry="9.58996" fill="#165A4A"/>
<ellipse cx="41.045" cy="135.41" rx="9.58991" ry="9.58996" fill="#165A4A"/>
<ellipse cx="72.4998" cy="135.41" rx="9.58991" ry="9.58996" fill="#165A4A"/>
<ellipse cx="103.955" cy="135.41" rx="9.58991" ry="9.58996" fill="#165A4A"/>
<ellipse cx="135.41" cy="135.41" rx="9.58991" ry="9.58996" fill="#165A4A"/>
<ellipse cx="41.045" cy="103.955" rx="9.58991" ry="9.58996" fill="#165A4A"/>
<ellipse cx="72.4998" cy="103.955" rx="9.58991" ry="9.58996" fill="#165A4A"/>
<ellipse cx="103.955" cy="103.955" rx="9.58991" ry="9.58996" fill="#165A4A"/>
<ellipse cx="135.41" cy="103.955" rx="9.58991" ry="9.58996" fill="#165A4A"/>
<ellipse cx="41.045" cy="72.5" rx="9.58991" ry="9.58996" fill="#165A4A"/>
<ellipse cx="72.4998" cy="72.5" rx="9.58991" ry="9.58996" fill="#165A4A"/>
<ellipse cx="103.955" cy="72.5" rx="9.58991" ry="9.58996" fill="#165A4A"/>
<ellipse cx="135.41" cy="72.5" rx="9.58991" ry="9.58996" fill="#165A4A"/>
<ellipse cx="41.045" cy="41.0449" rx="9.58991" ry="9.58996" fill="#165A4A"/>
<ellipse cx="72.4998" cy="41.0449" rx="9.58991" ry="9.58996" fill="#165A4A"/>
<ellipse cx="103.955" cy="41.0449" rx="9.58991" ry="9.58996" fill="#165A4A"/>
<ellipse cx="135.41" cy="41.0449" rx="9.58991" ry="9.58996" fill="#165A4A"/>
<ellipse cx="41.045" cy="9.58983" rx="9.58991" ry="9.58996" fill="#165A4A"/>
<ellipse cx="72.4993" cy="9.58983" rx="9.58991" ry="9.58996" fill="#165A4A"/>
<ellipse cx="103.955" cy="9.58983" rx="9.58991" ry="9.58996" fill="#165A4A"/>
<ellipse cx="135.409" cy="9.58983" rx="9.58991" ry="9.58996" fill="#165A4A"/>
</svg>
